<svg xmlns="http://www.w3.org/2000/svg" width="240" height="67" viewBox="0 0 240 67">
    <g fill="#FFF" fill-rule="evenodd">
        <path d="M128.041 10.592a5.596 5.596 0 0 1-3.445 5.17 5.573 5.573 0 0 1-6.085-1.212 5.605 5.605 0 0 1-1.21-6.098 5.583 5.583 0 0 1 5.158-3.455c1.48 0 2.9.589 3.947 1.638a5.6 5.6 0 0 1 1.635 3.957zM82.047 56.694c0 3.09-2.5 5.595-5.582 5.595-3.083 0-5.582-2.504-5.583-5.594 0-3.09 2.5-5.596 5.582-5.596 3.082.001 5.581 2.505 5.583 5.595zm4.232-14.44a15.793 15.793 0 0 1 2.04-19.776 15.702 15.702 0 0 1 19.73-2.049l6.081-6.093c-9.637-7.385-23.24-6.479-31.818 2.12-8.578 8.598-9.48 22.232-2.113 31.892l6.08-6.094zm26.36-17.22a15.792 15.792 0 0 1-2.04 19.778 15.7 15.7 0 0 1-19.73 2.045l-6.08 6.094c9.637 7.383 23.238 6.476 31.815-2.12 8.577-8.598 9.482-22.23 2.116-31.89l-6.08 6.093zM195.495 33.782h7.293v-4.544h-7.293c-4.437-.079-8.57 2.213-10.812 5.995a11.99 11.99 0 0 0 0 12.245c2.242 3.782 6.375 6.074 10.812 5.995h7.293V48.93h-7.293a7.69 7.69 0 0 1-6.745-3.751 7.494 7.494 0 0 1 0-7.645 7.69 7.69 0 0 1 6.745-3.751z"/>
        <path d="M191.796 43.38h10.992v-4.407h-10.992zM221.205 40.254l7.964-11.018h-6.051l-4.941 6.832zM219.981 41.338l-2.89-3.809-.013.016-6.308-8.309h-5.784l9.201 12.118-9.2 12.121h5.783l6.308-8.31 6.308 8.31h5.783l-9.2-12.121zM134.637 31.499v21.746c-.001.06.023.12.066.163a.231.231 0 0 0 .165.067h7.823c.06 0 .12-.025.162-.068a.227.227 0 0 0 .066-.162V31.429c0-6.374 5.278-11.752 11.726-11.63 6.266.122 11.282 5.18 11.283 11.378v22.066c-.001.06.022.119.065.162a.23.23 0 0 0 .163.068h7.824c.06 0 .12-.025.162-.068a.226.226 0 0 0 .066-.162V31.177a19.463 19.463 0 0 0-5.915-13.954 19.906 19.906 0 0 0-14.208-5.612c-10.847.182-19.448 9.156-19.448 19.888zM19.39 53.475h-6.937c-.512 0-.928-.38-.928-.849V21.271c0-.225.097-.441.272-.6a.973.973 0 0 1 .656-.249h6.937c.247 0 .483.089.657.248.174.16.272.376.272.601v31.355c0 .469-.416.849-.929.85zM20.319 10.505c0 3.043-2.46 5.51-5.496 5.51a5.502 5.502 0 0 1-5.496-5.508c0-3.043 2.46-5.51 5.495-5.51 1.458 0 2.856.58 3.887 1.613a5.514 5.514 0 0 1 1.61 3.895zM50.671 19.8h13.385a.23.23 0 0 0 .231-.225v-7.738a.232.232 0 0 0-.23-.23H50.751c-11.674 0-21.443 9.1-21.636 20.578-.098 5.613 2.102 11.03 6.104 15.033 4.003 4.003 9.473 6.257 15.183 6.257h13.653a.232.232 0 0 0 .231-.23v-7.732a.23.23 0 0 0-.23-.23H50.402c-3.5.001-6.85-1.39-9.29-3.857a12.625 12.625 0 0 1-3.664-9.24c.289-6.958 6.139-12.438 13.222-12.384V19.8z"/>
    </g>
</svg>
